<?xml version="1.0" encoding="UTF-8" standalone="no"?>
<!DOCTYPE svg PUBLIC "-//W3C//DTD SVG 1.1//EN" "http://www.w3.org/Graphics/SVG/1.1/DTD/svg11.dtd">
<svg width="100%" height="100%" viewBox="0 0 100 100" version="1.1" xmlns="http://www.w3.org/2000/svg" xmlns:xlink="http://www.w3.org/1999/xlink" xml:space="preserve" xmlns:serif="http://www.serif.com/" style="fill-rule:evenodd;clip-rule:evenodd;stroke-linejoin:round;stroke-miterlimit:2;">
    <g transform="matrix(0.954389,0,0,1,2.28055,0)">
        <g transform="matrix(0,1,1,0,-2.13163e-14,2.7969)">
            <path d="M52.84,5.906L52.84,94.094C52.84,97.354 50.314,100 47.203,100C44.092,100 41.566,97.354 41.566,94.094L41.566,5.906C41.566,2.646 44.092,0 47.203,0C50.314,0 52.84,2.646 52.84,5.906Z" style="fill:rgb(150,150,150);"/>
        </g>
        <g transform="matrix(0,1,1,0,-2.13163e-14,-29.0448)">
            <path d="M52.84,5.906L52.84,94.094C52.84,97.354 50.314,100 47.203,100C44.092,100 41.566,97.354 41.566,94.094L41.566,5.906C41.566,2.646 44.092,0 47.203,0C50.314,0 52.84,2.646 52.84,5.906Z" style="fill:rgb(150,150,150);"/>
        </g>
        <g transform="matrix(0,1,1,0,-2.13163e-14,34.6386)">
            <path d="M52.84,5.906L52.84,94.094C52.84,97.354 50.314,100 47.203,100C44.092,100 41.566,97.354 41.566,94.094L41.566,5.906C41.566,2.646 44.092,0 47.203,0C50.314,0 52.84,2.646 52.84,5.906Z" style="fill:rgb(150,150,150);"/>
        </g>
    </g>
</svg>
