<?xml version="1.0" encoding="UTF-8" standalone="no"?>
<!DOCTYPE svg PUBLIC "-//W3C//DTD SVG 1.1//EN" "http://www.w3.org/Graphics/SVG/1.1/DTD/svg11.dtd">
<svg width="100%" height="100%" viewBox="0 0 100 100" version="1.1" xmlns="http://www.w3.org/2000/svg" xmlns:xlink="http://www.w3.org/1999/xlink" xml:space="preserve" xmlns:serif="http://www.serif.com/" style="fill-rule:evenodd;clip-rule:evenodd;stroke-linejoin:round;stroke-miterlimit:2;">
    <g transform="matrix(1,0,0,0.817629,0,2.96169)">
        <path d="M100,27.986L100,87.074C100,94.208 95.264,100 89.432,100L10.568,100C4.736,100 0,94.208 0,87.074L0,27.986C0,20.852 4.736,15.06 10.568,15.06L89.432,15.06C95.264,15.06 100,20.852 100,27.986Z" style="fill:white;fill-opacity:0;"/>
        <path d="M100,27.986L100,87.074C100,94.208 95.264,100 89.432,100L10.568,100C4.736,100 0,94.208 0,87.074L0,27.986C0,20.852 4.736,15.06 10.568,15.06L89.432,15.06C95.264,15.06 100,20.852 100,27.986ZM91.667,27.986C91.667,26.477 90.665,25.252 89.432,25.252L10.568,25.252C9.335,25.252 8.333,26.477 8.333,27.986L8.333,87.074C8.333,88.583 9.335,89.808 10.568,89.808L89.432,89.808C90.665,89.808 91.667,88.583 91.667,87.074L91.667,27.986Z" style="fill:rgb(150,150,150);"/>
    </g>
    <g transform="matrix(1,0,0,0.817629,0,2.96169)">
        <path d="M1.699,20.959C3.583,17.41 6.853,15.06 10.568,15.06L89.432,15.06C93.147,15.06 96.417,17.41 98.301,20.959C82.083,34.948 60.361,53.557 53.281,59.026C51.555,60.359 48.723,60.574 46.719,59.026C39.639,53.557 17.917,34.948 1.699,20.959Z" style="fill:white;fill-opacity:0;"/>
        <path d="M1.699,20.959C3.583,17.41 6.853,15.06 10.568,15.06L89.432,15.06C93.147,15.06 96.417,17.41 98.301,20.959C82.083,34.948 60.361,53.557 53.281,59.026C51.555,60.359 48.723,60.574 46.719,59.026C39.639,53.557 17.917,34.948 1.699,20.959ZM21.179,25.252C32.846,35.25 44.401,45.049 50,49.492C55.599,45.049 67.154,35.25 78.821,25.252L21.179,25.252Z" style="fill:rgb(150,150,150);"/>
    </g>
</svg>
