<?xml version="1.0" encoding="UTF-8" standalone="no"?>
<!DOCTYPE svg PUBLIC "-//W3C//DTD SVG 1.1//EN" "http://www.w3.org/Graphics/SVG/1.1/DTD/svg11.dtd">
<svg width="100%" height="100%" viewBox="0 0 100 100" version="1.1" xmlns="http://www.w3.org/2000/svg" xmlns:xlink="http://www.w3.org/1999/xlink" xml:space="preserve" xmlns:serif="http://www.serif.com/" style="fill-rule:evenodd;clip-rule:evenodd;stroke-linejoin:round;stroke-miterlimit:2;">
    <g transform="matrix(0.894108,0,0,1,5.29461,7.10543e-15)">
        <g transform="matrix(1,0,0,1.08898,0,-9.53797)">
            <path d="M100,61.479L100,84.436C100,90.771 93.736,95.915 86.02,95.915L13.98,95.915C6.264,95.915 0,90.771 0,84.436L0,61.479C0,55.143 6.264,50 13.98,50L86.02,50C93.736,50 100,55.143 100,61.479Z" style="fill:white;fill-opacity:0;"/>
            <path d="M100,61.479L100,84.436C100,90.771 93.736,95.915 86.02,95.915L13.98,95.915C6.264,95.915 0,90.771 0,84.436L0,61.479C0,55.143 6.264,50 13.98,50L86.02,50C93.736,50 100,55.143 100,61.479ZM90.68,61.479C90.68,59.367 88.592,57.652 86.02,57.652L13.98,57.652C11.408,57.652 9.32,59.367 9.32,61.479L9.32,84.436C9.32,86.548 11.408,88.262 13.98,88.262L86.02,88.262C88.592,88.262 90.68,86.548 90.68,84.436L90.68,61.479Z" style="fill:rgb(150,150,150);"/>
        </g>
        <g transform="matrix(1.10385,0,0,1,-5.19233,-17.46)">
            <path d="M77.451,50L71.085,50C71.085,38.355 61.645,28.915 50,28.915C38.355,28.915 28.915,38.355 28.915,50L22.549,50C22.549,34.839 34.839,22.549 50,22.549C65.161,22.549 77.451,34.839 77.451,50Z" style="fill:rgb(150,150,150);"/>
        </g>
        <g transform="matrix(1.10385,0,0,1,-5.19233,-5.08909)">
            <rect x="71.087" y="37.629" width="6.364" height="12.371" style="fill:rgb(150,150,150);"/>
        </g>
        <g transform="matrix(1.10385,0,0,1,-58.771,-5.08909)">
            <rect x="71.087" y="37.629" width="6.364" height="12.371" style="fill:rgb(150,150,150);"/>
        </g>
    </g>
</svg>
